<svg width="29" height="21" viewBox="0 0 29 21" fill="none" xmlns="http://www.w3.org/2000/svg">
<path d="M25.4288 0.767998V4.096H24.8528C23.4874 4.096 22.3994 4.33066 21.5888 4.8C20.7781 5.26933 20.1808 6.016 19.7968 7.04C19.4554 8.02133 19.2847 9.28 19.2847 10.816V15.616L17.7488 12.736C18.0474 12.5653 18.4314 12.4373 18.9008 12.352C19.4128 12.2667 19.9034 12.224 20.3728 12.224C21.5674 12.224 22.5488 12.608 23.3168 13.376C24.1274 14.1013 24.5328 15.1253 24.5328 16.448C24.5328 17.6853 24.1488 18.7093 23.3808 19.52C22.6554 20.3307 21.6528 20.736 20.3728 20.736C19.5621 20.736 18.7941 20.544 18.0688 20.16C17.3434 19.776 16.7461 19.0933 16.2768 18.112C15.8074 17.1307 15.5728 15.7227 15.5728 13.888V12.544C15.5728 9.42933 15.9568 7.01866 16.7248 5.312C17.4928 3.60533 18.5808 2.432 19.9888 1.792C21.3968 1.10933 23.0608 0.767998 24.9808 0.767998H25.4288ZM13.0128 0.767998V4.096H12.4368C11.0714 4.096 9.98342 4.33066 9.17275 4.8C8.36208 5.26933 7.76475 6.016 7.38075 7.04C7.03942 8.02133 6.86875 9.28 6.86875 10.816V15.616L5.33275 12.736C5.63142 12.5653 6.01542 12.4373 6.48475 12.352C6.99675 12.2667 7.48742 12.224 7.95675 12.224C9.15142 12.224 10.1328 12.608 10.9008 13.376C11.7114 14.1013 12.1168 15.1253 12.1168 16.448C12.1168 17.6853 11.7328 18.7093 10.9648 19.52C10.2394 20.3307 9.23675 20.736 7.95675 20.736C7.14608 20.736 6.37808 20.544 5.65275 20.16C4.92742 19.776 4.33008 19.0933 3.86075 18.112C3.39142 17.1307 3.15675 15.7227 3.15675 13.888V12.544C3.15675 9.42933 3.54075 7.01866 4.30875 5.312C5.07675 3.60533 6.16475 2.432 7.57275 1.792C8.98075 1.10933 10.6448 0.767998 12.5648 0.767998H13.0128Z" fill="#FF4237"/>
</svg>
