<svg width="29" height="21" viewBox="0 0 29 21" fill="none" xmlns="http://www.w3.org/2000/svg">
<path d="M3.54075 20.736V17.408H4.11675C5.48208 17.408 6.57008 17.1733 7.38075 16.704C8.19142 16.2347 8.76742 15.5093 9.10875 14.528C9.49275 13.504 9.68475 12.224 9.68475 10.688V5.888L11.2208 8.768C10.9221 8.93866 10.5168 9.06666 10.0048 9.152C9.53542 9.23733 9.06608 9.28 8.59675 9.28C7.40208 9.28 6.39942 8.91733 5.58875 8.192C4.82075 7.424 4.43675 6.37866 4.43675 5.056C4.43675 3.81866 4.79942 2.79466 5.52475 1.984C6.29275 1.17333 7.31675 0.767998 8.59675 0.767998C9.40742 0.767998 10.1754 0.959998 10.9008 1.344C11.6261 1.728 12.2234 2.41066 12.6928 3.392C13.1621 4.37333 13.3968 5.78133 13.3968 7.616V8.96C13.3968 12.0747 13.0128 14.4853 12.2448 16.192C11.4768 17.8987 10.3888 19.0933 8.98075 19.776C7.57275 20.416 5.90875 20.736 3.98875 20.736H3.54075ZM15.9568 20.736V17.408H16.5328C17.8981 17.408 18.9861 17.1733 19.7968 16.704C20.6074 16.2347 21.1834 15.5093 21.5248 14.528C21.9088 13.504 22.1008 12.224 22.1008 10.688V5.888L23.6368 8.768C23.3381 8.93866 22.9328 9.06666 22.4208 9.152C21.9514 9.23733 21.4821 9.28 21.0128 9.28C19.8181 9.28 18.8154 8.91733 18.0048 8.192C17.2368 7.424 16.8528 6.37866 16.8528 5.056C16.8528 3.81866 17.2154 2.79466 17.9408 1.984C18.7088 1.17333 19.7328 0.767998 21.0128 0.767998C21.8234 0.767998 22.5914 0.959998 23.3168 1.344C24.0421 1.728 24.6394 2.41066 25.1088 3.392C25.5781 4.37333 25.8128 5.78133 25.8128 7.616V8.96C25.8128 12.0747 25.4288 14.4853 24.6608 16.192C23.8928 17.8987 22.8048 19.0933 21.3968 19.776C19.9888 20.416 18.3248 20.736 16.4048 20.736H15.9568Z" fill="#FF4237"/>
</svg>
